<?xml version="1.0" encoding="utf-8"?>
<svg version="1.1" id="Layer_1"
xmlns="http://www.w3.org/2000/svg"
xmlns:xlink="http://www.w3.org/1999/xlink"
width="550px" height="400px"
xml:space="preserve">
<g id="PathID_1" transform="matrix(2.44276, 0, 0, 2.44276, 125.5, 176.85)" opacity="1">
<path style="fill:#221E1F;fill-opacity:1" d="M15.85 -12.85Q15.85 -11.7 14.95 -10.85L8.5 -4.35L7.55 -3.05L9.1 -2.85L10.8 -2.85Q11.95 -2.85 12.8 -2.05Q13.7 -1.2 13.7 0.05Q13.7 1.3 12.8 2.15Q11.95 2.95 10.8 2.95L7.55 3.1L8.5 4.45L14.95 10.9Q15.85 11.8 15.85 12.95Q15.85 14.15 14.95 15Q14.15 15.85 13 15.85Q11.75 15.85 10.9 15L4.4 8.5L3.1 7.6L2.9 9.15L2.9 10.75Q2.9 12 2.1 12.8Q1.25 13.6 0 13.6Q-1.15 13.6 -2 12.8Q-2.85 12 -2.85 10.75L-2.85 9.15L-3.05 7.6L-4.35 8.5L-10.85 15Q-11.7 15.85 -12.85 15.85Q-14.1 15.85 -14.95 15Q-15.8 14.15 -15.8 12.95Q-15.8 11.8 -14.95 10.9L-8.45 4.45L-7.45 3.1L-10.8 2.95Q-11.95 2.95 -12.7 2.15Q-13.55 1.3 -13.55 0.05Q-13.55 -1.2 -12.7 -2.05Q-11.95 -2.85 -10.8 -2.85L-7.45 -3.05L-8.45 -4.35L-14.95 -10.85Q-15.8 -11.7 -15.8 -12.85Q-15.8 -14.1 -14.95 -14.95Q-14.1 -15.7 -12.85 -15.7Q-11.7 -15.7 -10.85 -14.95L-4.35 -8.45L-3.05 -7.5L-2.85 -10.75Q-2.85 -11.9 -2 -12.75Q-1.15 -13.6 0 -13.6Q1.25 -13.6 2.1 -12.75Q2.9 -11.9 2.9 -10.75L2.9 -9.1L3.1 -7.5L4.4 -8.45L10.9 -14.95Q11.75 -15.7 13 -15.7Q14.15 -15.7 14.95 -14.95Q15.85 -14.1 15.85 -12.85M2.1 -16.2Q1.25 -15.25 0 -15.25Q-1.15 -15.25 -2 -16.2Q-2.85 -17 -2.85 -18.25Q-2.85 -19.45 -2 -20.25Q-1.15 -21.1 0 -21.1Q1.25 -21.1 2.1 -20.25Q2.9 -19.45 2.9 -18.25Q2.9 -17 2.1 -16.2M18.3 -2.85Q19.5 -2.85 20.3 -2.05Q21.15 -1.2 21.15 0.05Q21.15 1.3 20.3 2.15Q19.5 2.95 18.3 2.95Q17.1 2.95 16.3 2.15Q15.4 1.3 15.4 0.05Q15.4 -1.2 16.3 -2.05Q17.1 -2.85 18.3 -2.85M2.1 16.3Q2.9 17.15 2.9 18.3Q2.9 19.45 2.1 20.3Q1.25 21.15 0 21.15Q-1.15 21.15 -2 20.3Q-2.85 19.45 -2.85 18.3Q-2.85 17.15 -2 16.3Q-1.15 15.45 0 15.45Q1.25 15.45 2.1 16.3M-16.15 -2.05Q-15.3 -1.2 -15.3 0.05Q-15.3 1.3 -16.15 2.15Q-17 2.95 -18.25 2.95Q-19.4 2.95 -20.25 2.15Q-21.1 1.3 -21.1 0.05Q-21.1 -1.2 -20.25 -2.05Q-19.4 -2.85 -18.25 -2.85Q-17 -2.85 -16.15 -2.05" />
</g>
<g id="PathID_2" transform="matrix(2.44276, 0, 0, 2.44276, 125, 176.4)" opacity="1">
<radialGradient
id="RadialGradID_1" gradientUnits="userSpaceOnUse" gradientTransform="matrix(0.0264893, 0, 0, 0.0264893, -0.85, -2.25)" spreadMethod ="pad" cx="0" cy="0" r="819.2" fx="0" fy="0" >
<stop  offset="0.254902"  style="stop-color:#ABDFE9;stop-opacity:1" />
<stop  offset="1"  style="stop-color:#E8F9FE;stop-opacity:1" />
</radialGradient>
<path style="fill:url(#RadialGradID_1) " d="M14.25 -15.2Q14.85 -14.5 14.85 -13.5Q14.85 -12.35 13.95 -11.5L7.5 -5L6.55 -3.7L8.1 -3.5L9.8 -3.5Q10.95 -3.5 11.8 -2.7Q12.7 -1.85 12.7 -0.6Q12.7 0.65 11.8 1.5Q10.95 2.3 9.8 2.3L6.55 2.45L7.5 3.8L13.95 10.25Q14.85 11.15 14.85 12.3Q14.85 13.5 13.95 14.35Q13.15 15.2 12 15.2Q10.75 15.2 9.9 14.35L3.4 7.85L2.1 6.95L1.9 8.5L1.9 10.1Q1.9 11.35 1.1 12.15Q0.25 12.95 -1 12.95Q-2.15 12.95 -3 12.15Q-3.85 11.35 -3.85 10.1L-3.85 8.5L-4.05 6.95L-5.35 7.85L-11.85 14.35Q-12.7 15.2 -13.85 15.2L-14.85 15.05Q-13.65 10.95 -10.4 6.55Q-5.15 -0.85 3.3 -5.35Q11.55 -9.8 13.8 -13.9L14.25 -15.2" />
</g>
<g id="PathID_3" transform="matrix(1.12231, 0, 0, 1.12231, 178.9, 181.95)" opacity="1">
<path style="fill:#000000;fill-opacity:1" d="M24.3 -0.85Q20.65 0 16.9 0Q2.45 0 2.45 -13.85Q2.45 -26.75 16.9 -26.75Q20.65 -26.75 24.3 -25.9L24.3 -21.3Q20.5 -22.05 17.4 -22.05Q8 -22.05 8 -13.85Q8 -4.65 17.4 -4.65Q20.55 -4.65 24.3 -5.4L24.3 -0.85" />
</g>
<g id="PathID_4" transform="matrix(1.12231, 0, 0, 1.12231, 303.25, 181.95)" opacity="1">
<path style="fill:#000000;fill-opacity:1" d="M9.2 -36.05L9.2 0L3.65 0L3.65 -36.05L9.2 -36.05" />
</g>
<g id="PathID_5" transform="matrix(1.09545, 0, -0.370998, 1.03072, 307.75, 180)" opacity="1">
<path style="fill:#ABDFE9;fill-opacity:1" d="M24.3 -0.85Q20.65 0 16.9 0Q2.45 0 2.45 -13.85Q2.45 -26.75 16.9 -26.75Q20.65 -26.75 24.3 -25.9L24.3 -21.3Q20.5 -22.05 17.4 -22.05Q8 -22.05 8 -13.85Q8 -4.65 17.4 -4.65Q20.55 -4.65 24.3 -5.4L24.3 -0.85" />
</g>
<g id="PathID_6" transform="matrix(1.09545, 0, -0.370998, 1.03072, 335.9, 180)" opacity="1">
<path style="fill:#ABDFE9;fill-opacity:1" d="M9.2 -36.05L9.2 0L3.65 0L3.65 -36.05L9.2 -36.05" />
</g>
<g id="PathID_7" transform="matrix(1.09545, 0, -0.370998, 1.03072, 349.25, 180)" opacity="1">
<path style="fill:#ABDFE9;fill-opacity:1" d="M15.2 -4.65Q22.4 -4.65 22.4 -13.45Q22.4 -22.05 15.2 -22.05Q8 -22.05 8 -13.45Q8 -4.65 15.2 -4.65M2.45 -13.35Q2.45 -26.75 15.2 -26.75Q28 -26.75 28 -13.35Q28 0 15.2 0Q2.5 0 2.45 -13.35" />
</g>
<g id="PathID_8" transform="matrix(1.09545, 0, -0.370998, 1.03072, 382.15, 180)" opacity="1">
<path style="fill:#ABDFE9;fill-opacity:1" d="M26.85 -26.75L26.85 0L22.85 0L22.15 -3.25Q17.95 0 13.05 0Q3.65 0 3.65 -10.1L3.65 -26.75L9.2 -26.75L9.2 -10Q9.2 -4.75 14.4 -4.75Q18.1 -4.75 21.3 -7.75L21.3 -26.75L26.85 -26.75" />
</g>
<g id="PathID_9" transform="matrix(1.09545, 0, -0.370998, 1.03072, 415.2, 180)" opacity="1">
<path style="fill:#ABDFE9;fill-opacity:1" d="M20.95 -20.65Q18.6 -21.8 15.15 -21.8Q7.95 -21.8 7.95 -14.05Q7.95 -4.75 15.15 -4.75Q18.6 -4.75 20.95 -5.55L20.95 -20.65M26.5 -1.65Q21.4 0 14.45 0Q2.45 0 2.45 -13.85Q2.45 -26.7 15.15 -26.7Q18.6 -26.7 20.95 -25.5L20.95 -36.05L26.5 -36.05L26.5 -1.65" />
</g>
<g id="PathID_10" transform="matrix(1.09545, 0, -0.370998, 1.03072, 447.8, 180)" opacity="1">
<path style="fill:#ABDFE9;fill-opacity:1" d="M3.65 -1.35L3.65 -6.15Q8.55 -4.65 13.1 -4.65Q18.75 -4.65 18.75 -7.85Q18.75 -10.8 15.2 -10.8L11.05 -10.8Q2.45 -10.8 2.45 -18.9Q2.45 -26.75 13.65 -26.75Q18.3 -26.75 23.05 -25.4L23.05 -20.6Q18.15 -22.05 13.65 -22.05Q7.75 -22.05 7.75 -18.9Q7.75 -15.95 11.05 -15.95L15.2 -15.95Q24.3 -15.95 24.3 -7.85Q24.3 0 13.1 0Q8.35 0 3.65 -1.35" />
</g>
<g id="PathID_11" transform="matrix(0.46875, 0, 0, 0.46875, 201, 221.2)" opacity="1">
<path style="fill:#279827;fill-opacity:1" d="M2.8 0L2.8 -45.45L9.35 -45.45L25.15 -8.35L25.15 -45.45L31.7 -45.45L31.7 0L25.15 0L9.35 -37.1L9.35 0L2.8 0" />
</g>
<g id="PathID_12" transform="matrix(0.46875, 0, 0, 0.46875, 217.25, 221.2)" opacity="1">
<path style="fill:#279827;fill-opacity:1" d="M3.05 -3.3L6.95 -3.3L6.95 -42.1L3.05 -42.1L3.05 -45.45L17.4 -45.45L17.4 -42.1L13.5 -42.1L13.5 -3.3L17.4 -3.3L17.4 0L3.05 0L3.05 -3.3" />
</g>
<g id="PathID_13" transform="matrix(0.46875, 0, 0, 0.46875, 226.4, 221.2)" opacity="1">
<path style="fill:#279827;fill-opacity:1" d="M17.35 0L10.75 0L10.75 -3.3L10.8 -3.3L10.8 -42.1L2.3 -42.1L2.3 -45.45L25.85 -45.45L25.85 -42.1L17.35 -42.1L17.35 0" />
</g>
<g id="PathID_14" transform="matrix(0.46875, 0, 0, 0.46875, 239.15, 221.2)" opacity="1">
<path style="fill:#279827;fill-opacity:1" d="M23.55 0L11 -17.5L9.35 -17.5L9.35 0L2.8 0L2.8 -45.45L20.7 -45.45Q25.95 -45.45 28.05 -44.45Q31.65 -42.7 31.65 -37.25L31.65 -25.7Q31.65 -20.25 28.05 -18.5Q25.95 -17.5 20.75 -17.5L19.15 -17.5L31.65 0L23.55 0M20.7 -20.75Q23.7 -20.75 24.3 -21Q25.1 -21.4 25.1 -22.8L25.1 -40.1Q25.1 -41.8 23.65 -42.15L20.7 -42.2L9.35 -42.2L9.35 -20.75L20.7 -20.75" />
</g>
<g id="PathID_15" transform="matrix(0.46875, 0, 0, 0.46875, 255.1, 221.2)" opacity="1">
<path style="fill:#279827;fill-opacity:1" d="M2.8 -37.25Q2.8 -41.95 5.45 -43.8Q7.75 -45.45 12.5 -45.45L20.7 -45.45Q25.95 -45.45 28.05 -44.45Q31.65 -42.7 31.65 -37.25L31.65 -8.2Q31.65 -2.75 28.05 -1Q25.95 0 20.7 0L12.75 0Q8.15 0 6 -1.2Q2.8 -3.05 2.8 -8.2L2.8 -37.25M9.35 -5.45Q9.35 -3.9 10.3 -3.45Q10.8 -3.25 12.75 -3.25L20.7 -3.25Q23.7 -3.25 24.3 -3.5Q25.1 -3.9 25.1 -5.3L25.1 -40.1Q25.1 -41.8 23.65 -42.15L20.7 -42.2L13.15 -42.2Q10.85 -42.2 10.45 -42Q9.35 -41.65 9.35 -39.95L9.35 -5.45" />
</g>
<g id="PathID_16" transform="matrix(0.46875, 0, 0, 0.46875, 271.2, 221.2)" opacity="1">
<path style="fill:#279827;fill-opacity:1" d="M32.55 -8.2Q32.55 -2.75 28.9 -1Q26.75 0 21.55 0L13.65 0Q9.05 0 6.9 -1.2Q3.65 -3.05 3.65 -8.2L3.65 -37.25Q3.65 -41.95 6.3 -43.8Q8.65 -45.45 13.4 -45.45L21.6 -45.45Q26.8 -45.45 28.9 -44.45Q32.55 -42.7 32.55 -37.25L32.55 -30.75L26 -30.75L26 -40.1Q26 -41.8 24.5 -42.15L21.6 -42.2L14 -42.2Q11.75 -42.2 11.35 -42Q10.2 -41.65 10.2 -39.95L10.2 -5.45Q10.2 -3.9 11.2 -3.45Q11.7 -3.25 13.65 -3.25L21.6 -3.25Q24.55 -3.25 25.15 -3.5Q26 -3.9 26 -5.3L26 -20.85L15.65 -20.85L15.65 -24.15L32.55 -24.15L32.55 -8.2" />
</g>
<g id="PathID_17" transform="matrix(0.46875, 0, 0, 0.46875, 287.55, 221.2)" opacity="1">
<path style="fill:#279827;fill-opacity:1" d="M31.65 -3.25L31.65 0L2.8 0L2.8 -45.45L31.65 -45.45L31.65 -42.2L9.35 -42.2L9.35 -24.1L25.1 -24.1L25.1 -20.75L9.35 -20.75L9.35 -3.25L31.65 -3.25" />
</g>
<g id="PathID_18" transform="matrix(0.46875, 0, 0, 0.46875, 302.2, 221.2)" opacity="1">
<path style="fill:#279827;fill-opacity:1" d="M2.8 0L2.8 -45.45L9.35 -45.45L25.15 -8.35L25.15 -45.45L31.7 -45.45L31.7 0L25.15 0L9.35 -37.1L9.35 0L2.8 0" />
</g>
<g id="PathID_19" transform="matrix(0.46875, 0, 0, 0.46875, 330.45, 221.2)" opacity="1">
<path style="fill:#279827;fill-opacity:1" d="M3.05 -3.3L6.95 -3.3L6.95 -42.1L3.05 -42.1L3.05 -45.45L17.4 -45.45L17.4 -42.1L13.5 -42.1L13.5 -3.3L17.4 -3.3L17.4 0L3.05 0L3.05 -3.3" />
</g>
<g id="PathID_20" transform="matrix(0.46875, 0, 0, 0.46875, 339.6, 221.2)" opacity="1">
<path style="fill:#279827;fill-opacity:1" d="M31.65 -14.7L31.65 -8.2Q31.65 -2.75 28.05 -1Q25.95 0 20.7 0L12.75 0Q8.15 0 6 -1.2Q2.8 -3.05 2.8 -8.2L2.8 -37.25Q2.8 -41.95 5.45 -43.8Q7.75 -45.45 12.5 -45.45L20.7 -45.45Q25.95 -45.45 28.05 -44.45Q31.65 -42.7 31.65 -37.25L31.65 -30.75L25.1 -30.75L25.1 -40.1Q25.1 -41.8 23.65 -42.15L20.7 -42.2L13.15 -42.2Q10.85 -42.2 10.45 -42Q9.35 -41.65 9.35 -39.95L9.35 -5.45Q9.35 -3.9 10.3 -3.45Q10.8 -3.25 12.75 -3.25L20.7 -3.25Q23.7 -3.25 24.3 -3.5Q25.1 -3.9 25.1 -5.3L25.1 -14.7L31.65 -14.7" />
</g>
<g id="PathID_21" transform="matrix(0.46875, 0, 0, 0.46875, 355, 221.2)" opacity="1">
<path style="fill:#279827;fill-opacity:1" d="M31.65 -3.25L31.65 0L2.8 0L2.8 -45.45L31.65 -45.45L31.65 -42.2L9.35 -42.2L9.35 -24.1L25.1 -24.1L25.1 -20.75L9.35 -20.75L9.35 -3.25L31.65 -3.25" />
</g>
<g id="PathID_22" transform="matrix(0.46875, 0, 0, 0.46875, 381.65, 221.2)" opacity="1">
<path style="fill:#279827;fill-opacity:1" d="M31.65 -14.7L31.65 -8.2Q31.65 -2.75 28.05 -1Q25.95 0 20.7 0L12.75 0Q8.15 0 6 -1.2Q2.8 -3.05 2.8 -8.2L2.8 -37.25Q2.8 -41.95 5.45 -43.8Q7.75 -45.45 12.5 -45.45L20.7 -45.45Q25.95 -45.45 28.05 -44.45Q31.65 -42.7 31.65 -37.25L31.65 -30.75L25.1 -30.75L25.1 -40.1Q25.1 -41.8 23.65 -42.15L20.7 -42.2L13.15 -42.2Q10.85 -42.2 10.45 -42Q9.35 -41.65 9.35 -39.95L9.35 -5.45Q9.35 -3.9 10.3 -3.45Q10.8 -3.25 12.75 -3.25L20.7 -3.25Q23.7 -3.25 24.3 -3.5Q25.1 -3.9 25.1 -5.3L25.1 -14.7L31.65 -14.7" />
</g>
<g id="PathID_23" transform="matrix(0.46875, 0, 0, 0.46875, 397.05, 221.2)" opacity="1">
<path style="fill:#279827;fill-opacity:1" d="M23.55 0L11 -17.5L9.35 -17.5L9.35 0L2.8 0L2.8 -45.45L20.7 -45.45Q25.95 -45.45 28.05 -44.45Q31.65 -42.7 31.65 -37.25L31.65 -25.7Q31.65 -20.25 28.05 -18.5Q25.95 -17.5 20.75 -17.5L19.15 -17.5L31.65 0L23.55 0M20.7 -20.75Q23.7 -20.75 24.3 -21Q25.1 -21.4 25.1 -22.8L25.1 -40.1Q25.1 -41.8 23.65 -42.15L20.7 -42.2L9.35 -42.2L9.35 -20.75L20.7 -20.75" />
</g>
<g id="PathID_24" transform="matrix(0.46875, 0, 0, 0.46875, 413, 221.2)" opacity="1">
<path style="fill:#279827;fill-opacity:1" d="M31.65 -3.25L31.65 0L2.8 0L2.8 -45.45L31.65 -45.45L31.65 -42.2L9.35 -42.2L9.35 -24.1L25.1 -24.1L25.1 -20.75L9.35 -20.75L9.35 -3.25L31.65 -3.25" />
</g>
<g id="PathID_25" transform="matrix(0.46875, 0, 0, 0.46875, 427.65, 221.2)" opacity="1">
<path style="fill:#279827;fill-opacity:1" d="M23.85 -5.9L10.65 -5.9L9.15 0L2.4 0L13.85 -45.45L20.65 -45.45L32.15 0L25.4 0L23.85 -5.9M11.45 -9.2L23 -9.2L17.25 -32L11.45 -9.2" />
</g>
<g id="PathID_26" transform="matrix(0.46875, 0, 0, 0.46875, 443.3, 221.2)" opacity="1">
<path style="fill:#279827;fill-opacity:1" d="M15.9 -45.45L23.4 -14.25L31 -45.45L43.9 -45.45L43.9 0L37.35 0L37.35 -40.45L26.9 0L20 0L9.55 -40.45L9.55 0L3 0L3 -45.45L15.9 -45.45" />
</g>
<g id="PathID_27" transform="matrix(0.276909, 0, 0, 0.276909, 256, 129.45)" opacity="1">
<path style="fill:#000000;fill-opacity:1" d="M129.1 34.8L133.9 35.35L136.6 40.7L135.55 42.3L110.35 69.05L145.15 69.05L146.8 69.6L148.4 70.65L149.45 72.3L150 77.1L146.8 79.8L110.35 80.3L135.55 106.55L136.6 108.15L135.55 113.5L130.7 115.15L129.1 114.05L94.3 80.3L80.35 80.3L80.35 93.15L114.65 129.05L115.7 131.2L114.1 134.95L108.75 136.55L107.15 135.5L80.35 109.25L79.8 145.65L78.75 148.35L78.2 148.85L73.9 150.45L70.15 147.8L69.65 145.65L69.1 109.75L43.9 134.95L42.85 135.5L39.65 136.55L35.9 133.85L34.8 131.75L35.35 129.05L69.1 93.15L69.1 80.3L55.7 80.3L21.95 113.5L19.3 115.15Q15.55 114.6 13.9 111.4Q12.3 108.7 14.45 106.55L39.65 80.3L4.3 79.8L2.65 79.25L1.6 78.7L1.05 78.15L0 72.3L4.3 69.05L39.65 69.05L15 43.9L14.45 42.8Q11.8 38 16.05 35.35L18.2 34.25L20.35 35.35L56.25 69.05L69.1 69.05L69.1 55.7L36.4 22.45L35.35 20.85L35.9 16.05L38.05 13.35L41.25 12.85L69.1 39.6L69.65 5.35Q69.65 1.05 73.9 0L78.75 1.6L79.3 2.65L79.8 4.25L80.35 40.15L107.65 13.35L110.9 12.85L113.55 14.95L115.7 19.25L113.55 21.95L80.35 55.7L80.35 69.05L93.75 69.05L127.5 35.85L129.1 34.8" />
</g>
<g id="PathID_28" transform="matrix(0.276909, 0, 0, 0.276909, 214, 155.45)" opacity="1">
<path style="fill:#000000;fill-opacity:1" d="M129.1 34.8L133.9 35.35L136.6 40.7L135.55 42.3L110.35 69.05L145.15 69.05L146.8 69.6L148.4 70.65L149.45 72.3L150 77.1L146.8 79.8L110.35 80.3L135.55 106.55L136.6 108.15L135.55 113.5L130.7 115.15L129.1 114.05L94.3 80.3L80.35 80.3L80.35 93.15L114.65 129.05L115.7 131.2L114.1 134.95L108.75 136.55L107.15 135.5L80.35 109.25L79.8 145.65L78.75 148.35L78.2 148.85L73.9 150.45L70.15 147.8L69.65 145.65L69.1 109.75L43.9 134.95L42.85 135.5L39.65 136.55L35.9 133.85L34.8 131.75L35.35 129.05L69.1 93.15L69.1 80.3L55.7 80.3L21.95 113.5L19.3 115.15Q15.55 114.6 13.9 111.4Q12.3 108.7 14.45 106.55L39.65 80.3L4.3 79.8L2.65 79.25L1.6 78.7L1.05 78.15L0 72.3L4.3 69.05L39.65 69.05L15 43.9L14.45 42.8Q11.8 38 16.05 35.35L18.2 34.25L20.35 35.35L56.25 69.05L69.1 69.05L69.1 55.7L36.4 22.45L35.35 20.85L35.9 16.05L38.05 13.35L41.25 12.85L69.1 39.6L69.65 5.35Q69.65 1.05 73.9 0L78.75 1.6L79.3 2.65L79.8 4.25L80.35 40.15L107.65 13.35L110.9 12.85L113.55 14.95L115.7 19.25L113.55 21.95L80.35 55.7L80.35 69.05L93.75 69.05L127.5 35.85L129.1 34.8" />
</g>
</svg>
